<!-- Generator: Adobe Illustrator 21.1.0, SVG Export Plug-In . SVG Version: 6.00 Build 0)  -->
<svg version="1.1" id="Layer_1" xmlns="http://www.w3.org/2000/svg" xmlns:xlink="http://www.w3.org/1999/xlink" x="0px" y="0px"
	 viewBox="0 0 141 32" style="enable-background:new 0 0 141 32;" xml:space="preserve">
<style type="text/css">
	.st0{fill:#FFFFFF;}
</style>
<g>
	<path class="st0" d="M20.7,13.2c-0.6-0.5-1.1-1.3-1.1-2.1c0-0.3,0.1-0.8,0.2-1.1c0-0.2,0.1-0.2,0.2-0.3c0.9-0.2,1.3-0.2,1.4-0.3
		c0.2-0.4,0.3-0.9,0.3-0.9l-7-2.2c0,0,0.4,1.1,0.7,1.2l3.2,1.4c0,0-1.6,0.4-2.5,0.6l-0.2,0.1c0,0,0.3,0.6,0.9,0.9
		c0.6-0.2,1.7-0.4,1.7-0.4c-1.5,3-4.7,5-8.1,5c-0.2,0-0.8,0-1.2,0S8.7,15.4,9,15.6c0.6,0.3,1.1,0.9,1.3,1.5c0.1,0.4-0.1,0.7-0.4,0.9
		c-0.6,0.5-2.2,1.6-3.7,2.8c-0.2-0.3-0.4-0.7-0.5-1c-1.4-3.1-2.1-7.5-2.1-13.3V6.3l12-3.9l12,3.9v0.1c0,2.1-0.1,4.1-0.3,5.8v0.2h2
		v-0.1c0.2-1.8,0.3-3.7,0.3-5.8V4.9l-14-4.5l-14,4.5v1.5c0,6.1,0.7,10.7,2.2,14.1c0.2,0.5,0.5,1,0.7,1.4c-1.2,0.9-2.2,1.6-2.2,1.6
		c0.3,0.5,0.6,1,0.6,1l7.7-5.5c4.1-2.8,9-4.3,14-4.3H27c-0.3,1.9-0.8,3.6-1.4,5c-0.7,1.6-1.6,3-2.8,4.4c-0.9,1.1-2,2-3.2,2.8
		c-2,1.4-3.8,2-3.9,2.1l0,0l0,0c-0.2-0.1-1.9-0.7-3.9-2.1C10.5,26,9.4,25.1,8.5,24c-0.3-0.3-0.6-0.7-0.9-1.1l-0.1-0.1L5.9,24L6,24.1
		c0.4,0.5,0.7,0.9,1,1.3c1,1.2,2.2,2.2,3.5,3.1c2.2,1.5,4.1,2.2,4.4,2.3c0,0,0.4,0.1,0.5,0.2h0.1l0,0l0,0c0,0,0,0,0.1,0
		c0.2,0,0.5-0.2,0.5-0.2c0.4-0.1,2.2-0.8,4.4-2.3c1.3-0.9,2.5-2,3.5-3.1c1.3-1.5,2.3-3.1,3.1-4.9c0.7-1.6,1.3-3.5,1.6-5.8h1.7
		c0.1-0.4,0.2-1.1,0.2-1.1h-6.2C22.1,13.5,21.3,13.6,20.7,13.2z"/>
	<rect x="93.3" y="4.9" class="st0" width="2.1" height="21.6"/>
	<path class="st0" d="M74.9,20.1c-0.5-0.5-1-0.9-1.3-1l0,0c-0.9-0.5-1.5-0.7-2.2-0.9c-0.5-0.2-1.1-0.3-1.8-0.7
		c-0.9-0.4-1.2-0.6-1.4-0.9c-0.1-0.1-0.4-0.4-0.5-0.8c-0.1-0.4,0-0.8,0.1-1.1c0.3-0.6,1-0.9,1.3-1.1c0.2-0.1,0.7-0.2,1.4-0.3l0,0
		c1.4,0,2.6,0.6,3.4,1.1l0.1,0.1l1.2-1.7l-0.1-0.1c-1-0.7-2.6-1.5-4.6-1.5l0,0c-1.1,0-1.9,0.3-2.2,0.4c-0.5,0.2-1.7,0.7-2.4,2.1
		c-0.4,0.8-0.5,1.7-0.3,2.5c0.2,0.9,0.7,1.5,0.9,1.7c0.5,0.5,1.1,0.9,2.2,1.4c0.8,0.3,1.4,0.5,1.9,0.7c0.7,0.2,1.2,0.4,1.8,0.8l0,0
		c0.2,0.1,0.5,0.3,0.8,0.6c0.2,0.2,0.3,0.4,0.4,0.8c0.1,0.5,0,0.9-0.1,1.1c0,0.1-0.2,0.5-0.7,0.9c-0.4,0.4-0.9,0.5-1.1,0.6
		c-0.7,0.2-1.3,0.1-2,0.1c-0.9-0.1-1.6-0.3-2-0.5c-0.6-0.3-1.2-0.6-1.8-1H66L64.7,25l0.1,0.1c0.7,0.6,1.5,1,2.3,1.3s1.7,0.5,2.6,0.6
		c0.3,0,0.7,0.1,1.1,0.1c0.6,0,1.1-0.1,1.6-0.2c0.4-0.1,1.1-0.3,1.9-1s1.2-1.4,1.3-1.7c0.1-0.3,0.5-1.3,0.2-2.5
		C75.7,21.2,75.4,20.6,74.9,20.1z"/>
	<path class="st0" d="M85.5,11.4L85.5,11.4c-1.6-0.1-3,0.5-3.5,0.8s-1.1,0.7-1.7,1.2V4.9h-2.1v21.6h2.1V16.3
		c0.6-0.7,1.7-1.6,2.7-2.1c0.7-0.3,1.4-0.7,2.4-0.6c0.8,0.1,1.5,0.3,1.9,0.8c0.2,0.2,0.6,0.6,0.6,2.1v10.1H90V16.4
		c0-2.3-0.8-3.1-1.2-3.5C88.3,12.3,87.3,11.6,85.5,11.4z"/>
	<path class="st0" d="M120.3,11.4c-1.6-0.1-3,0.5-3.5,0.8s-1.1,0.7-1.8,1.3l-0.1-1.2h-2v14.3h2.1V16.3c0.6-0.7,1.7-1.6,2.7-2.1
		c0.7-0.3,1.4-0.7,2.4-0.6c0.8,0.1,1.5,0.3,1.9,0.8c0.2,0.2,0.6,0.6,0.6,2.1v10.1h2.1V16.4c0-2.3-0.8-3.1-1.2-3.5
		C123,12.3,122,11.6,120.3,11.4z"/>
	<path class="st0" d="M140,18.9c0-1.2-0.1-2.2-0.4-3.1c-0.4-1.4-1.3-2.7-2.4-3.5c-0.7-0.5-1.3-0.6-1.7-0.7h-0.1
		c-0.4-0.1-1.1-0.3-2.1-0.2c-0.9,0.1-1.6,0.3-1.9,0.4c-0.9,0.4-1.5,0.9-1.8,1.1c-0.6,0.5-1.1,1-1.4,1.6c-0.5,0.8-0.7,1.4-0.9,2.1
		c-0.1,0.2-0.3,1-0.3,2.2c0,0.9,0,1.7,0.1,2.4c0.1,0.6,0.3,1.4,0.8,2.3c0.6,1.1,1.3,1.8,1.7,2c0.4,0.3,1.3,0.9,2.5,1.3
		c0.6,0.2,1.2,0.3,1.9,0.3c0.3,0,0.6,0,0.8,0c1-0.1,1.8-0.3,2.2-0.4c0.8-0.3,1.5-0.6,2.2-1.1l0.1-0.1l-1.2-1.7l-0.1,0.1
		c-0.5,0.4-1,0.6-1.6,0.8c-0.2,0.1-0.8,0.3-1.7,0.3c-0.5,0-1.2,0.1-1.9-0.1c-0.9-0.3-1.5-0.7-1.8-0.9c-0.2-0.2-0.7-0.6-1.2-1.4
		c-0.4-0.6-0.5-1.2-0.6-1.7c-0.1-0.3-0.1-0.6-0.1-0.9H140V18.9z M129.3,17.8c0.1-0.3,0.1-0.6,0.1-0.7l0,0c0.1-0.6,0.3-0.9,0.6-1.5
		c0.3-0.4,0.6-0.8,1-1.1c0.2-0.2,0.6-0.5,1.2-0.8c0.2-0.1,0.6-0.2,1.3-0.3c0.6,0,1.1,0.1,1.4,0.1h0.1c0.3,0.1,0.6,0.2,1,0.4
		c0.7,0.5,1.3,1.4,1.6,2.4c0.1,0.3,0.2,0.7,0.2,1.4h-8.5V17.8z"/>
	<path class="st0" d="M59.9,11.8L59.9,11.8c-0.9-0.3-1.8-0.5-2.8-0.5c-2.2,0-4,0.8-5.4,2.2l-0.1,0.1l1.5,1.5l0.1-0.1
		c1-1,2.3-1.6,3.9-1.6c0.7,0,1.4,0.1,2,0.3c1.5,0.6,1.6,1.5,1.6,2.9v0.1c-1,0.1-2,0.3-3,0.5c-2.1,0.5-3.1,0.8-3.8,1.3
		c-1.4,0.8-2,1.5-2.2,2c-0.3,0.5-0.6,1.4-0.5,2.5c0,0.3,0.1,1.1,0.6,1.9c0.2,0.3,0.8,1.2,1.9,1.7c0.6,0.3,1.3,0.4,2,0.4
		c0.4,0,0.9-0.1,1.3-0.1c1.6-0.2,2.8-0.9,3.3-1.3c0.1-0.1,0.3-0.2,0.5-0.4l0.1,1.3h2v-9.9C62.9,15.4,62.9,12.9,59.9,11.8z
		 M60.8,22.7c-0.5,0.4-1,0.8-1.5,1.1h-0.1c-0.6,0.3-1.4,0.8-2.6,1c-0.7,0.1-1.4,0.2-2.1-0.1c-0.6-0.3-0.9-0.7-1-0.9
		c-0.2-0.4-0.3-0.8-0.3-0.9c0-0.5,0-0.9,0.3-1.3c0.1-0.1,0.3-0.6,1.4-1.1c0.5-0.3,1.3-0.6,3.3-1c0.8-0.2,1.7-0.3,2.6-0.5
		C60.8,19,60.8,22.7,60.8,22.7z"/>
	<path class="st0" d="M106.6,11.8L106.6,11.8c-0.9-0.3-1.8-0.5-2.8-0.5c-2.2,0-4,0.8-5.4,2.2l-0.1,0.1l1.5,1.5l0.1-0.1
		c1-1,2.3-1.6,3.9-1.6c0.7,0,1.4,0.1,2,0.3c1.5,0.6,1.6,1.5,1.6,2.9v0.1c-1,0.1-2,0.3-3,0.5c-2.1,0.5-3.1,0.8-3.8,1.3
		c-1.4,0.8-2,1.5-2.2,2c-0.3,0.5-0.6,1.4-0.5,2.5c0,0.3,0.1,1.1,0.6,1.9c0.2,0.3,0.8,1.2,1.9,1.7c0.6,0.3,1.3,0.4,2,0.4
		c0.4,0,0.9-0.1,1.3-0.1c1.6-0.2,2.8-0.9,3.3-1.3c0.1-0.1,0.3-0.2,0.5-0.4l0.1,1.3h2v-9.9C109.6,15.4,109.6,12.9,106.6,11.8z
		 M107.4,22.7c-0.5,0.4-1,0.8-1.5,1.1h-0.1c-0.6,0.3-1.4,0.8-2.6,1c-0.7,0.1-1.4,0.2-2.1-0.1c-0.6-0.3-0.9-0.7-1-0.9
		c-0.2-0.4-0.3-0.8-0.3-0.9c0-0.5,0-0.9,0.3-1.3c0.1-0.1,0.3-0.6,1.4-1.1c0.5-0.3,1.3-0.6,3.3-1c0.8-0.2,1.7-0.3,2.6-0.5
		C107.4,19,107.4,22.7,107.4,22.7z"/>
	<path class="st0" d="M46.7,12.3c-0.3-0.2-0.6-0.3-0.9-0.5h-0.1c-0.4-0.2-1.3-0.6-2.7-0.5c-1,0-2.1,0.3-3.1,0.8
		c-2,1-2.9,2.7-3.2,3.5c-0.6,1.4-0.7,2.7-0.6,3.6l0,0c0,0.7,0,1.9,0.6,3.3c0.4,1,1.1,1.9,1.9,2.6c1,0.8,2,1.2,2.7,1.4
		c0.3,0.1,0.9,0.2,1.7,0.2c0.4,0,0.9,0,1.3-0.1c1.1-0.3,1.9-1,2.4-1.5l0.1,1.2h2V4.9h-2.1C46.7,4.9,46.7,12.3,46.7,12.3z M46.7,22.5
		c-0.3,0.4-0.6,0.8-1,1.2l0.1,0.1l-0.1-0.1c-0.4,0.3-0.9,0.8-1.8,1c-0.8,0.2-1.5,0-2-0.1s-1.2-0.4-1.9-1c-0.6-0.5-1.1-1.1-1.4-1.9
		c-0.4-1-0.5-1.9-0.5-2.5l0,0c0-0.7,0.1-1.7,0.5-2.7c0.2-0.5,0.8-1.7,2.3-2.5c0.7-0.4,1.4-0.6,2.2-0.6c0.1,0,0.1,0,0.2,0
		c0.8,0,1.4,0.2,1.6,0.3H45c0.7,0.3,1.2,0.7,1.7,1.3C46.7,15,46.7,22.5,46.7,22.5z"/>
</g>
</svg>
