<svg width="563" height="370" viewBox="0 0 563 370" xmlns="http://www.w3.org/2000/svg">
	<title>BDF853F2-4D6E-4135-A80C-A13A4FDDCB4D</title>
	<g fill="#FFF" fill-rule="evenodd"><path
		d="M133.148 327.317H1.118a.775.775 0 0 1-.773-1.185.775.775 0 0 1 .773-.34h132.03a.774.774 0 0 1 .77 1.183.774.774 0 0 1-.77.342zm428.691 0H448.601a.774.774 0 0 1-.77-1.183.774.774 0 0 1 .77-.342h113.238a.775.775 0 0 1 .773 1.184.775.775 0 0 1-.773.34z"
		opacity=".43"/><path
		d="M433.164 349.643H404.82c-1.475 11.586-11.348 20.27-23.046 20.27-11.698 0-21.57-8.684-23.045-20.27H220.367c-1.473 11.587-11.346 20.273-23.045 20.273-11.699 0-21.572-8.686-23.045-20.273h-25.751c-5.208-.005-9.429-4.219-9.435-9.418V148.424l1.44.876v190.925c.006 4.405 3.582 7.975 7.995 7.98h26.396a.72.72 0 0 1 .716.65c1.098 11.135 10.477 19.622 21.684 19.622s20.586-8.487 21.683-19.621a.72.72 0 0 1 .717-.651h139.652a.72.72 0 0 1 .716.65c1.098 11.135 10.477 19.622 21.684 19.622s20.586-8.487 21.684-19.621a.72.72 0 0 1 .717-.651h28.99c4.412-.005 7.988-3.575 7.993-7.98V57.053c-.005-4.405-3.581-7.975-7.994-7.98H195.065a56.268 56.268 0 0 0-.532-1.438h238.631c5.208.005 9.429 4.219 9.435 9.418v283.172c-.006 5.199-4.227 9.413-9.435 9.418zm-17.461-33.72a6.007 6.007 0 0 1-6.005 5.995H171.992a6.007 6.007 0 0 1-6.005-5.995V164.161l1.44.812v150.95a4.565 4.565 0 0 0 4.563 4.555h237.708a4.565 4.565 0 0 0 4.562-4.555v-34.36h-11.5v19.63c-.004 3.521-2.862 6.375-6.39 6.379H185.319a6.391 6.391 0 0 1-6.389-6.379V118.937c.488-.444.968-.894 1.44-1.351v183.607a4.95 4.95 0 0 0 4.95 4.94h211.05a4.95 4.95 0 0 0 4.949-4.94v-20.35a.72.72 0 0 1 .72-.719h12.943a.72.72 0 0 1 .72.72v35.08zm0-55.982a.72.72 0 0 1-.72.72H402.04a.72.72 0 0 1-.72-.72V135.846a.719.719 0 0 1 .72-.72h12.942a.72.72 0 0 1 .72.719v124.098-.002zm-1.44-123.376H402.76v122.657h11.502V136.565zm-59.516 61.328c0 25.803-15.568 49.066-39.447 58.94-23.878 9.875-51.363 4.418-69.64-13.828-18.275-18.245-23.743-45.685-13.852-69.524 9.89-23.839 33.191-39.382 59.037-39.382 35.275.04 63.86 28.578 63.902 63.794zm-126.362 0c-.001 25.222 15.216 47.96 38.556 57.613 23.34 9.653 50.207 4.318 68.071-13.516 17.865-17.834 23.21-44.655 13.542-67.957-9.668-23.302-32.444-38.496-57.708-38.496-34.48.039-62.421 27.933-62.461 62.356zm120.552 0c0 23.457-14.153 44.605-35.86 53.582-21.708 8.977-46.694 4.015-63.309-12.572-16.614-16.586-21.584-41.531-12.593-63.203 8.992-21.671 30.174-35.802 53.67-35.802 32.068.037 58.055 25.98 58.092 57.995zm-114.743 0c0 22.875 13.802 43.499 34.971 52.253 21.17 8.754 45.536 3.916 61.738-12.26 16.203-16.175 21.05-40.501 12.281-61.635-8.768-21.135-29.425-34.914-52.339-34.914-31.272.035-56.615 25.335-56.65 56.556zm61.56-23.606l9.386-16.75a7.263 7.263 0 0 1 9.846-2.737 7.238 7.238 0 0 1 2.82 9.808l-9.379 16.743a24.326 24.326 0 0 1 2.607 3.318l18.505-5.222a7.264 7.264 0 0 1 7.033 1.78 7.235 7.235 0 0 1 1.973 6.97 7.249 7.249 0 0 1-5.06 5.191l-18.49 5.219a24.247 24.247 0 0 1-.501 4.188l16.776 9.367a7.242 7.242 0 0 1 3.714 6.223 7.241 7.241 0 0 1-3.54 6.322 7.266 7.266 0 0 1-7.256.1l-16.77-9.362a24.311 24.311 0 0 1-3.324 2.602l5.228 18.474a7.24 7.24 0 0 1-1.2 6.34 7.266 7.266 0 0 1-5.786 2.876 7.282 7.282 0 0 1-6.98-5.276L290.132 222a24.347 24.347 0 0 1-4.195-.5l-9.383 16.748c-1.968 3.466-6.37 4.694-9.853 2.75a7.238 7.238 0 0 1-2.814-9.82l9.379-16.743a24.374 24.374 0 0 1-2.607-3.317l-18.504 5.222a7.264 7.264 0 0 1-7.055-1.764 7.236 7.236 0 0 1-1.979-6.987 7.25 7.25 0 0 1 5.086-5.19l18.49-5.219c.045-1.408.213-2.81.501-4.188l-16.777-9.366a7.243 7.243 0 0 1-3.714-6.224 7.242 7.242 0 0 1 3.541-6.323 7.267 7.267 0 0 1 7.256-.1l16.77 9.363a24.35 24.35 0 0 1 3.324-2.602l-5.231-18.474a7.235 7.235 0 0 1 1.773-7.035 7.264 7.264 0 0 1 6.993-1.973 7.25 7.25 0 0 1 5.199 5.069l5.226 18.457c1.41.045 2.815.213 4.197.502zm-5.437.404l-5.372-18.971a5.81 5.81 0 0 0-4.164-4.095 5.821 5.821 0 0 0-5.625 1.586 5.799 5.799 0 0 0-1.402 5.665l5.376 18.987a.718.718 0 0 1-.308.804 22.875 22.875 0 0 0-3.925 3.074.72.72 0 0 1-.857.115l-17.236-9.622a5.822 5.822 0 0 0-7.916 2.234 5.802 5.802 0 0 0 2.237 7.902l17.245 9.627a.72.72 0 0 1 .351.79 22.816 22.816 0 0 0-.592 4.946.72.72 0 0 1-.524.687l-19.004 5.363a5.804 5.804 0 0 0-1.258 10.656 5.815 5.815 0 0 0 4.421.517l19.02-5.367a.721.721 0 0 1 .806.31 22.884 22.884 0 0 0 3.078 3.918.716.716 0 0 1 .116.856l-9.639 17.207a5.798 5.798 0 0 0 .08 5.805 5.818 5.818 0 0 0 5.077 2.834 5.817 5.817 0 0 0 4.995-2.972l9.644-17.217a.72.72 0 0 1 .79-.35 22.83 22.83 0 0 0 4.954.592.72.72 0 0 1 .689.523l5.371 18.972a5.818 5.818 0 0 0 10.671 1.255 5.753 5.753 0 0 0 .52-4.412l-5.375-18.987a.719.719 0 0 1 .31-.806 22.823 22.823 0 0 0 3.923-3.072.72.72 0 0 1 .858-.116l17.235 9.623a5.82 5.82 0 0 0 7.914-2.234 5.8 5.8 0 0 0-2.237-7.901l-17.243-9.627a.72.72 0 0 1-.351-.789 22.75 22.75 0 0 0 .592-4.946c.001-.32.215-.6.524-.687l19.004-5.364a5.81 5.81 0 0 0 4.113-4.156 5.8 5.8 0 0 0-1.59-5.623 5.822 5.822 0 0 0-5.685-1.393l-19.02 5.367a.72.72 0 0 1-.806-.31 22.81 22.81 0 0 0-3.08-3.918.718.718 0 0 1-.116-.856l9.64-17.208a5.797 5.797 0 0 0-.08-5.805 5.817 5.817 0 0 0-5.076-2.834 5.817 5.817 0 0 0-4.996 2.972l-9.643 17.216a.722.722 0 0 1-.79.35 22.802 22.802 0 0 0-4.955-.59.72.72 0 0 1-.688-.525h-.001zm-104.858 7.926a.721.721 0 0 1-.72-.72v-69.014c.492-.589.972-1.187 1.44-1.794v70.09h12.022a.72.72 0 0 1 .72.719v31.991a.72.72 0 0 1-.72.72h-12.02v85.724h209.33v-18.77h-6.542a.72.72 0 0 1-.72-.719v-20.901a.72.72 0 0 1 .72-.72h6.541V136.566h-6.54a.72.72 0 0 1-.721-.719v-20.903a.72.72 0 0 1 .72-.72h6.541V97.48H194.07c.201-.476.39-.956.576-1.438H396.23a.721.721 0 0 1 .72.719v18.183a.72.72 0 0 1-.72.72h-6.54v19.463h6.54a.72.72 0 0 1 .72.719v124.098a.72.72 0 0 1-.72.72h-6.54v19.463h6.54a.72.72 0 0 1 .72.72v20.208a.72.72 0 0 1-.72.72H185.46a.721.721 0 0 1-.72-.72V213.89a.719.719 0 0 1 .72-.719h12.022v-30.553H185.46zM415.705 81.89v33.053a.72.72 0 0 1-.72.72H402.04a.72.72 0 0 1-.72-.72V96.62a4.95 4.95 0 0 0-4.95-4.94H196.153c.145-.477.28-.957.413-1.439h199.805a6.393 6.393 0 0 1 6.39 6.379v17.604h11.501V81.89a4.565 4.565 0 0 0-4.562-4.554H198.798c.036-.479.071-.957.1-1.439h210.8c3.314.004 6 2.685 6.005 5.993h.002z"
		opacity=".4"/><path
		d="M170.451 166.86a.62.62 0 0 1-.3-.079c-.372-.206-37.097-20.652-51.403-31.516-24.367-.036-44.783-6.462-59.05-18.588-13.297-11.302-20.62-27.28-20.62-44.992 0-18.017 7.504-35.792 20.585-48.77C69.978 12.681 88.638.484 118.958.484s48.986 12.197 59.303 22.43c13.084 12.977 20.586 30.753 20.586 48.77 0 11.227-2.406 21.546-7.156 30.668a61.387 61.387 0 0 1-20.709 22.808c.19 8.437.092 40.752.091 41.082a.62.62 0 0 1-.622.617z"
		fill-opacity=".1"/><path
		d="M170.451 166.86a.62.62 0 0 1-.3-.079c-.372-.206-37.097-20.652-51.403-31.516-24.367-.036-44.783-6.462-59.05-18.588-13.297-11.302-20.62-27.28-20.62-44.992 0-18.017 7.504-35.792 20.585-48.77C69.978 12.681 88.638.484 118.958.484s48.986 12.197 59.303 22.43c13.084 12.977 20.586 30.753 20.586 48.77 0 11.227-2.406 21.546-7.156 30.668a61.387 61.387 0 0 1-20.709 22.808c.19 8.437.092 40.752.091 41.082a.62.62 0 0 1-.622.617zM118.958 1.721c-29.898 0-48.272 12.002-58.42 22.07-12.85 12.747-20.22 30.202-20.22 47.892a58.169 58.169 0 0 0 5.12 24.252 56.636 56.636 0 0 0 15.065 19.798c14.08 11.968 34.294 18.294 58.455 18.294.136 0 .269.044.377.127 12.863 9.82 44.68 27.77 50.5 31.029.015-5.747.078-33.287-.1-40.338a.62.62 0 0 1 .277-.532c8.95-5.916 15.874-13.5 20.578-22.537 4.656-8.944 7.018-19.068 7.018-30.097 0-17.689-7.369-35.145-20.22-47.891-10.153-10.065-28.529-22.067-58.43-22.067z"/><path
		d="M162.183 71.063a5.485 5.485 0 0 1-3.392 5.068 5.5 5.5 0 0 1-5.987-1.189 5.478 5.478 0 0 1-1.191-5.977 5.494 5.494 0 0 1 5.076-3.386 5.49 5.49 0 0 1 5.494 5.484zm-75.997 0a5.485 5.485 0 0 1-3.391 5.068 5.5 5.5 0 0 1-5.988-1.188 5.479 5.479 0 0 1-1.191-5.978 5.494 5.494 0 0 1 5.076-3.386 5.49 5.49 0 0 1 5.493 5.484h.001zm50.665 0a5.485 5.485 0 0 1-3.391 5.068 5.5 5.5 0 0 1-5.988-1.188 5.479 5.479 0 0 1-1.191-5.978 5.494 5.494 0 0 1 5.076-3.386 5.49 5.49 0 0 1 5.493 5.484h.001zm-25.332 0a5.485 5.485 0 0 1-3.392 5.068 5.5 5.5 0 0 1-5.987-1.188 5.478 5.478 0 0 1-1.192-5.978 5.494 5.494 0 0 1 5.076-3.386 5.49 5.49 0 0 1 5.494 5.484z"/></g>
</svg>
